<svg width="2418" height="634" viewBox="0 0 2418 634" fill="none" xmlns="http://www.w3.org/2000/svg">
<path d="M2 74L73 3L144 74L215 3L286 74L357 3L428 74L499 3L570 74L641 3L712 74L783 3L854 74L925 3L996 74L1067 3L1138 74L1209 3L1280 74L1351 3L1422 74L1493 3L1564 74L1635 3L1706 74L1777 3L1848 74L1919 3L1990 74L2061 3L2132 74L2203 3L2274 74L2345 3L2416 74" stroke="#FFA8A8" stroke-width="4"/>
<path d="M2 631L73 560L144 631L215 560L286 631L357 560L428 631L499 560L570 631L641 560L712 631L783 560L854 631L925 560L996 631L1067 560L1138 631L1209 560L1280 631L1351 560L1422 631L1493 560L1564 631L1635 560L1706 631L1777 560L1848 631L1919 560L1990 631L2061 560L2132 631L2203 560L2274 631L2345 560L2416 631" stroke="#FFA8A8" stroke-width="4"/>
</svg>
