<svg width="1459" height="639" viewBox="0 0 1459 639" fill="none" xmlns="http://www.w3.org/2000/svg">
<path d="M2 635L74.75 550.928L147.5 635L220.25 550.928L293 635L365.75 550.928C387.281 578.952 431.975 635 438.5 635C445.025 635 489.719 578.952 511.25 550.928L584 635L656.75 550.928L729.5 635L802.25 550.928L875 635L947.75 550.928L1020.5 635L1093.25 550.928L1166 635L1238.75 550.928L1311.5 635L1384.25 550.928L1457 635M2 88.0717L74.75 4L147.5 88.0717L220.25 4L293 88.0717L365.75 4C387.281 32.0239 431.975 88.0717 438.5 88.0717C445.025 88.0717 489.719 32.0239 511.25 4L584 88.0717L656.75 4L729.5 88.0717L802.25 4L875 88.0717L947.75 4L1020.5 88.0717L1093.25 4L1166 88.0717L1238.75 4L1311.5 88.0717L1384.25 4L1457 88.0717" stroke="white" stroke-width="5"/>
</svg>
