<?xml version="1.0" encoding="UTF-8"?><svg id="Layer_1" xmlns="http://www.w3.org/2000/svg" viewBox="0 0 1810.25 190.88"><defs><style>.cls-1{fill:#fff;stroke-width:0px;}</style></defs><polygon class="cls-1" points="47.76 27.05 47.76 81.16 94.62 108.21 141.48 81.16 141.48 27.05 94.62 0 47.76 27.05"/><polygon class="cls-1" points="143.03 27.05 143.03 81.16 189.89 108.21 236.75 81.16 236.75 27.05 189.89 0 143.03 27.05"/><polygon class="cls-1" points="238.3 27.05 238.3 81.16 285.16 108.21 332.02 81.16 332.02 27.05 285.16 0 238.3 27.05"/><polygon class="cls-1" points="333.57 27.05 333.57 81.16 380.43 108.21 427.29 81.16 427.29 27.05 380.43 0 333.57 27.05"/><polygon class="cls-1" points="428.85 27.05 428.85 81.16 475.7 108.21 522.56 81.16 522.56 27.05 475.7 0 428.85 27.05"/><polygon class="cls-1" points="524.12 27.05 524.12 81.16 570.98 108.21 617.83 81.16 617.83 27.05 570.98 0 524.12 27.05"/><polygon class="cls-1" points="619.39 27.05 619.39 81.16 666.25 108.21 713.11 81.16 713.11 27.05 666.25 0 619.39 27.05"/><polygon class="cls-1" points="714.66 27.05 714.66 81.16 761.52 108.21 808.38 81.16 808.38 27.05 761.52 0 714.66 27.05"/><polygon class="cls-1" points="809.93 27.05 809.93 81.16 856.79 108.21 903.65 81.16 903.65 27.05 856.79 0 809.93 27.05"/><polygon class="cls-1" points="905.2 27.05 905.2 81.16 952.06 108.21 998.92 81.16 998.92 27.05 952.06 0 905.2 27.05"/><polygon class="cls-1" points="1000.48 27.05 1000.48 81.16 1047.33 108.21 1094.19 81.16 1094.19 27.05 1047.33 0 1000.48 27.05"/><polygon class="cls-1" points="1095.75 27.05 1095.75 81.16 1142.61 108.21 1189.46 81.16 1189.46 27.05 1142.61 0 1095.75 27.05"/><polygon class="cls-1" points="1191.02 27.05 1191.02 81.16 1237.88 108.21 1284.74 81.16 1284.74 27.05 1237.88 0 1191.02 27.05"/><polygon class="cls-1" points="1286.29 27.05 1286.29 81.16 1333.15 108.21 1380.01 81.16 1380.01 27.05 1333.15 0 1286.29 27.05"/><polygon class="cls-1" points="0 109.71 0 163.82 46.86 190.88 93.72 163.82 93.72 109.71 46.86 82.66 0 109.71"/><polygon class="cls-1" points="95.27 109.71 95.27 163.82 142.13 190.88 188.99 163.82 188.99 109.71 142.13 82.66 95.27 109.71"/><polygon class="cls-1" points="190.54 109.71 190.54 163.82 237.4 190.88 284.26 163.82 284.26 109.71 237.4 82.66 190.54 109.71"/><polygon class="cls-1" points="285.82 109.71 285.82 163.82 332.67 190.88 379.53 163.82 379.53 109.71 332.67 82.66 285.82 109.71"/><polygon class="cls-1" points="381.09 109.71 381.09 163.82 427.95 190.88 474.8 163.82 474.8 109.71 427.95 82.66 381.09 109.71"/><polygon class="cls-1" points="476.36 109.71 476.36 163.82 523.22 190.88 570.08 163.82 570.08 109.71 523.22 82.66 476.36 109.71"/><polygon class="cls-1" points="571.63 109.71 571.63 163.82 618.49 190.88 665.35 163.82 665.35 109.71 618.49 82.66 571.63 109.71"/><polygon class="cls-1" points="666.9 109.71 666.9 163.82 713.76 190.88 760.62 163.82 760.62 109.71 713.76 82.66 666.9 109.71"/><polygon class="cls-1" points="762.17 109.71 762.17 163.82 809.03 190.88 855.89 163.82 855.89 109.71 809.03 82.66 762.17 109.71"/><polygon class="cls-1" points="857.45 109.71 857.45 163.82 904.3 190.88 951.16 163.82 951.16 109.71 904.3 82.66 857.45 109.71"/><polygon class="cls-1" points="952.72 109.71 952.72 163.82 999.58 190.88 1046.43 163.82 1046.43 109.71 999.58 82.66 952.72 109.71"/><polygon class="cls-1" points="1047.99 109.71 1047.99 163.82 1094.85 190.88 1141.71 163.82 1141.71 109.71 1094.85 82.66 1047.99 109.71"/><polygon class="cls-1" points="1143.26 109.71 1143.26 163.82 1190.12 190.88 1236.98 163.82 1236.98 109.71 1190.12 82.66 1143.26 109.71"/><polygon class="cls-1" points="1238.53 109.71 1238.53 163.82 1285.39 190.88 1332.25 163.82 1332.25 109.71 1285.39 82.66 1238.53 109.71"/><polygon class="cls-1" points="1382.02 27.05 1382.02 81.16 1428.88 108.21 1475.74 81.16 1475.74 27.05 1428.88 0 1382.02 27.05"/><polygon class="cls-1" points="1477.29 27.05 1477.29 81.16 1524.15 108.21 1571.01 81.16 1571.01 27.05 1524.15 0 1477.29 27.05"/><polygon class="cls-1" points="1334.26 109.71 1334.26 163.82 1381.12 190.88 1427.98 163.82 1427.98 109.71 1381.12 82.66 1334.26 109.71"/><polygon class="cls-1" points="1429.53 109.71 1429.53 163.82 1476.39 190.88 1523.25 163.82 1523.25 109.71 1476.39 82.66 1429.53 109.71"/><polygon class="cls-1" points="1525.53 109.71 1525.53 163.82 1572.39 190.88 1619.25 163.82 1619.25 109.71 1572.39 82.66 1525.53 109.71"/><polygon class="cls-1" points="1573.02 27.05 1573.02 81.16 1619.88 108.21 1666.74 81.16 1666.74 27.05 1619.88 0 1573.02 27.05"/><polygon class="cls-1" points="1668.29 27.05 1668.29 81.16 1715.15 108.21 1762.01 81.16 1762.01 27.05 1715.15 0 1668.29 27.05"/><polygon class="cls-1" points="1620.53 109.71 1620.53 163.82 1667.39 190.88 1714.25 163.82 1714.25 109.71 1667.39 82.66 1620.53 109.71"/><polygon class="cls-1" points="1716.53 109.71 1716.53 163.82 1763.39 190.88 1810.25 163.82 1810.25 109.71 1763.39 82.66 1716.53 109.71"/></svg>