<svg xmlns="http://www.w3.org/2000/svg" xmlns:xlink="http://www.w3.org/1999/xlink" width="1920" zoomAndPan="magnify" viewBox="0 0 1440 809.999993" height="1080" preserveAspectRatio="xMidYMid meet" version="1.0"><defs><clipPath id="2201d6638d"><path d="M 202.882812 14.121094 L 1237.117188 14.121094 L 1237.117188 810 L 202.882812 810 Z M 202.882812 14.121094 " clip-rule="nonzero"/></clipPath><clipPath id="30858fa000"><path d="M 720 14.121094 C 434.402344 14.121094 202.882812 245.910156 202.882812 531.835938 C 202.882812 817.757812 434.402344 1049.546875 720 1049.546875 C 1005.597656 1049.546875 1237.117188 817.757812 1237.117188 531.835938 C 1237.117188 245.910156 1005.597656 14.121094 720 14.121094 Z M 720 14.121094 " clip-rule="nonzero"/></clipPath><clipPath id="a05537f38b"><path d="M 206.097656 141 L 596 141 L 596 810 L 206.097656 810 Z M 206.097656 141 " clip-rule="nonzero"/></clipPath></defs><g clip-path="url(#2201d6638d)"><g clip-path="url(#30858fa000)"><path fill="#0500ff" d="M 202.882812 14.121094 L 1237.117188 14.121094 L 1237.117188 1048.355469 L 202.882812 1048.355469 Z M 202.882812 14.121094 " fill-opacity="1" fill-rule="nonzero"/></g></g><g clip-path="url(#a05537f38b)"><path fill="#ffffff" d="M 590.179688 629.121094 C 596.542969 623.253906 597.328125 610.332031 589.875 606.855469 C 580.125 602.304688 572.5625 592.976562 560.195312 593.5 C 554.339844 593.742188 548.238281 591.722656 542.5 589.917969 C 536.746094 588.101562 531.453125 584.851562 525.703125 583.003906 C 519.804688 581.105469 514.402344 579.851562 512.414062 572.480469 C 508.238281 556.988281 498.171875 548.542969 481.550781 547.59375 C 476.515625 547.3125 471.511719 543.964844 466.773438 541.5 C 455.605469 535.691406 446.851562 523.375 431.53125 529 C 430.050781 529.542969 427.882812 527.90625 426.171875 528.167969 C 415.085938 529.902344 405.136719 518.625 393.789062 526.3125 C 393.492188 523.929688 393.3125 522.445312 393.179688 521.414062 C 380.199219 523.652344 370.035156 529.535156 361.742188 538.769531 C 355.347656 533.234375 350.132812 530.859375 342.035156 533.253906 C 330.609375 536.640625 322.683594 526.355469 326.382812 514.730469 C 327.382812 511.597656 328.289062 508.4375 329.023438 506 C 321.699219 493.136719 309.632812 503.160156 300.558594 499.460938 C 302.457031 488.964844 311.59375 481.371094 309.765625 468.21875 C 303.515625 470.773438 295.554688 471.535156 293.699219 475.304688 C 289.703125 483.410156 283.238281 484.664062 276.171875 486.6875 C 264.65625 489.984375 253.574219 482.398438 252.554688 470.585938 C 251.675781 460.445312 258.015625 451.703125 257.648438 441.648438 C 257.589844 440.199219 260.375 438.425781 262.121094 437.1875 C 264.214844 435.703125 266.625 434.671875 268.863281 433.390625 C 276.648438 428.9375 284.152344 424.808594 293.726562 429.671875 C 296.648438 431.152344 303.21875 430.648438 304.867188 428.527344 C 310.960938 420.707031 317.925781 424.601562 324.726562 425.507812 C 327.214844 425.839844 329.589844 427.460938 332.042969 427.523438 C 337.253906 427.65625 339.101562 430.253906 339.46875 435.089844 C 340.003906 442.003906 343.40625 447.363281 349.09375 451.730469 C 354.09375 446.878906 354.003906 441.710938 352.371094 436.050781 C 347.652344 419.667969 348.324219 418.171875 363.265625 409.878906 C 364.542969 409.171875 366.015625 408.734375 367.140625 407.847656 C 371.425781 404.46875 376.609375 401.605469 379.449219 397.242188 C 381.050781 394.78125 378.570312 389.789062 378.25 385.910156 C 378.066406 383.675781 378.523438 381.390625 378.703125 378.996094 C 380.835938 381.46875 382.304688 383.171875 383.773438 384.875 C 385.117188 383.421875 386.46875 381.964844 387.8125 380.503906 C 391.46875 376.519531 394.457031 370.472656 398.9375 369.027344 C 405.832031 366.792969 411.339844 364.453125 414.71875 357.734375 C 415.75 355.683594 418.21875 353.9375 420.433594 352.972656 C 427.4375 349.945312 434.628906 347.335938 441.777344 344.648438 C 442.117188 344.523438 442.75 345.171875 443.136719 345.402344 C 441.113281 347.550781 439.078125 349.710938 435.960938 353.015625 C 440.152344 353.929688 443.074219 355.585938 444.855469 354.761719 C 450.554688 352.136719 455.835938 348.589844 460.476562 345.867188 C 455.875 342.132812 450.828125 339.804688 448.777344 335.898438 C 446.574219 331.707031 447.1875 326.039062 446.484375 320.296875 C 445.160156 320.144531 443.039062 319.734375 440.917969 319.707031 C 438.480469 319.671875 436.035156 319.976562 433.589844 320.136719 C 433.390625 319.355469 433.1875 318.570312 432.988281 317.78125 C 436.507812 316.625 439.964844 314.761719 443.550781 314.460938 C 449.421875 313.976562 455.449219 315.128906 461.265625 314.429688 C 466.074219 313.847656 471.5 312.632812 475.148438 309.78125 C 478.855469 306.882812 481.875 305.933594 485.984375 307.242188 C 490.175781 301.742188 490.835938 297.066406 483.21875 293.554688 C 479.339844 291.761719 475.667969 289.371094 472.210938 286.835938 C 468.726562 284.277344 462.625 280.863281 462.910156 278.425781 C 463.773438 270.921875 457.644531 267.507812 455.585938 261.9375 C 454.132812 258 450.992188 254.691406 447.4375 249.34375 C 446.058594 251.496094 445.132812 254.316406 443.191406 255.667969 C 439.886719 257.960938 437.683594 263.488281 432.03125 260.539062 C 427.140625 257.988281 421.8125 256.132812 423.148438 248.503906 C 423.523438 246.363281 421.140625 243.164062 419.1875 241.332031 C 416.328125 238.652344 412.839844 236.539062 409.378906 234.628906 C 407.25 233.449219 404.632812 232.347656 402.3125 232.492188 C 396.546875 232.847656 390.832031 233.925781 384.734375 234.765625 C 383.351562 242.152344 381.902344 249.910156 380.085938 259.589844 C 380.84375 260.738281 382.949219 264.070312 385.191406 267.3125 C 388.878906 272.625 387.894531 278.09375 382.886719 280.800781 C 375.210938 284.945312 372.722656 290.207031 374.117188 298.5625 C 374.457031 300.585938 371.683594 304.921875 370.054688 305.074219 C 367.4375 305.316406 362.984375 303.628906 362.125 301.578125 C 359.789062 296.027344 358.945312 289.855469 357.578125 284.230469 C 349.695312 281.417969 341.375 278.832031 333.386719 275.464844 C 328.109375 273.242188 323.496094 267.992188 318.238281 267.449219 C 307.207031 266.316406 307.554688 253.1875 298.480469 250.636719 C 298.277344 250.582031 298.570312 247.222656 299.28125 245.710938 C 302.863281 238.117188 308.730469 232.6875 315.972656 228.578125 C 318.085938 227.382812 320.882812 226.230469 321.804688 224.304688 C 324.320312 219.0625 327.351562 215.929688 333.742188 216.808594 C 335.175781 217.011719 337.324219 214.71875 338.554688 213.117188 C 340.960938 210.011719 342.949219 206.582031 345.117188 203.265625 C 356.019531 207.53125 362.78125 199.179688 370.625 197.382812 C 369.074219 192.4375 367.875 189.027344 366.953125 185.558594 C 366.011719 182.023438 365.34375 178.414062 364.492188 174.550781 C 367.140625 173.523438 370.113281 172.054688 373.25 171.21875 C 380.390625 169.3125 375.964844 176.101562 378.140625 178.535156 C 380.210938 176.136719 382.046875 174.007812 383.757812 172.027344 C 391.765625 175.109375 391.71875 175.140625 396.957031 183.582031 C 397.609375 184.636719 398.992188 185.449219 400.210938 185.917969 C 409.738281 189.605469 411.253906 193.226562 407.488281 201.894531 C 405.78125 205.820312 405.011719 210.152344 403.425781 215.644531 C 400.085938 215.867188 394.96875 216.28125 389.835938 216.539062 C 385.164062 216.769531 383.988281 220.335938 384.949219 223.425781 C 385.46875 225.089844 389.425781 225.851562 391.953125 226.613281 C 392.738281 226.847656 393.902344 225.710938 394.917969 225.273438 C 401.507812 222.441406 406.910156 223.433594 411.277344 229.644531 C 412.875 231.917969 415.460938 234.613281 417.90625 234.96875 C 425.035156 236.007812 432.316406 235.957031 441.660156 236.441406 C 437.386719 232.839844 434.679688 230.5625 431.773438 228.117188 C 436.742188 225.765625 444.101562 230.816406 445.6875 222.523438 C 441.335938 217.445312 432.703125 215.921875 434.796875 205.980469 C 441.34375 210.082031 447.09375 213.683594 452.945312 217.355469 C 456.761719 212.210938 460.097656 207.714844 463.585938 202.996094 C 461.855469 201.902344 461.03125 201.117188 460.054688 200.8125 C 452.996094 198.601562 445.410156 197.398438 439.035156 193.949219 C 435.953125 192.285156 428.933594 190.554688 432.308594 182.703125 C 433.929688 178.933594 431.886719 173.796875 426.601562 171.597656 C 420.933594 169.242188 415.425781 166.464844 409.964844 163.652344 C 408 162.640625 405.53125 161.351562 404.742188 159.558594 C 402.734375 154.984375 400.359375 152.410156 394.78125 152.933594 C 392.140625 153.183594 389.28125 151.132812 387.734375 150.566406 C 386.613281 146.75 386.210938 142.015625 384.949219 141.773438 C 383.039062 141.40625 380.710938 141.207031 378.578125 141.394531 C 368.171875 150.503906 358.140625 160.03125 348.496094 169.9375 C 353.753906 179.710938 351.710938 184.996094 339.585938 195.535156 C 337.910156 191.65625 336.359375 188.078125 334.816406 184.511719 C 267.21875 259.464844 221.226562 354.261719 206.597656 459.121094 C 207.121094 460.878906 207.84375 462.613281 208.800781 464.34375 C 210.148438 466.789062 212.136719 470.574219 211.195312 472.296875 C 207.15625 479.65625 211.175781 483.117188 216.667969 486.242188 C 221.726562 489.117188 226.609375 492.644531 232.042969 494.453125 C 241.277344 497.519531 250.0625 502.6875 260.839844 499.414062 C 266.757812 497.609375 272.699219 499.667969 278.042969 504.441406 C 282.199219 508.15625 288.265625 511.058594 293.773438 511.652344 C 305.515625 512.929688 311.289062 519.199219 312.824219 529.140625 C 322.613281 533.871094 331.578125 538.207031 340.355469 542.453125 C 348.066406 533.640625 348.648438 533.683594 354.398438 542.746094 C 359.527344 550.835938 357.84375 559.511719 350.726562 566.375 C 342.59375 574.21875 334.019531 582.089844 336.027344 595.285156 C 336.207031 596.464844 335.1875 597.882812 334.558594 599.109375 C 330.472656 607.019531 330.753906 608.488281 337.898438 614.515625 C 344.902344 620.433594 351.191406 626.21875 354.726562 635.632812 C 360.058594 649.839844 368.460938 661.980469 385.152344 666.445312 C 394.648438 668.988281 396.609375 674.726562 395.488281 685.90625 C 393.847656 702.296875 391.277344 718.632812 390.382812 735.058594 C 389.925781 743.414062 389.136719 751.207031 385.527344 758.847656 C 379.691406 771.203125 384.105469 784.71875 381.859375 797.539062 C 381.183594 801.40625 381.335938 805.4375 381.367188 809.394531 C 381.375 809.921875 382.929688 810.425781 384.300781 811.277344 C 385.101562 808.238281 385.742188 805.820312 386.605469 802.542969 C 391.136719 815.851562 380.691406 823.277344 377.019531 832.25 C 379.878906 834.796875 382.125 836.800781 384.367188 838.808594 C 382.011719 841.191406 379.65625 843.574219 377.023438 846.234375 C 379.6875 853.164062 379.664062 861.675781 387.152344 866.449219 C 386.691406 866.761719 385.082031 867.816406 381.644531 870.085938 C 391.921875 876.746094 401.148438 882.578125 410.203125 888.652344 C 416.660156 892.984375 423.128906 891.882812 429.730469 889.382812 C 432.074219 888.496094 434.375 887.492188 436.695312 886.542969 C 434.027344 885.351562 430.945312 884.664062 428.78125 882.863281 C 424.410156 879.21875 418.210938 875.527344 417.074219 870.816406 C 415.800781 865.515625 413.269531 857.570312 421.917969 853.273438 C 424.9375 851.777344 425.984375 846.707031 428.546875 843.8125 C 431.867188 840.054688 431.152344 837.304688 427.445312 834.75 C 424.917969 833.003906 422.257812 831.445312 418.542969 829.097656 C 426.039062 822.703125 433.347656 818.109375 434.511719 808.8125 C 434.699219 807.335938 438.148438 806.269531 439.636719 805.304688 C 437.128906 802.855469 434.394531 800.171875 429.953125 795.828125 C 436.699219 795.828125 441.660156 797.296875 444.105469 795.441406 C 446.914062 793.316406 447.480469 788.25 449.386719 783.574219 C 451.082031 783.144531 453.910156 782.292969 456.796875 781.753906 C 459.707031 781.210938 462.742188 781.273438 465.597656 780.566406 C 474.449219 778.378906 476.765625 772.835938 472.574219 764.46875 C 471.492188 762.300781 470.542969 760.070312 469.433594 757.664062 C 487.585938 761.980469 488.769531 761.289062 499.792969 743.976562 C 501.632812 741.085938 504.898438 738.71875 508.015625 737.109375 C 514.5625 733.734375 520.628906 724.195312 519.472656 717.011719 C 518.726562 712.378906 519.652344 708.957031 523.933594 706.808594 C 530.8125 703.351562 537.417969 698.460938 544.71875 696.921875 C 553.730469 695.023438 558.394531 691.046875 563.457031 683.082031 C 569.789062 673.113281 572.84375 663.558594 572.484375 652.230469 C 572.410156 649.792969 572.519531 646.578125 573.953125 645 C 579.03125 639.402344 584.613281 634.246094 590.179688 629.121094 Z M 590.179688 629.121094 " fill-opacity="1" fill-rule="nonzero"/></g><path fill="#ffffff" d="M 433.210938 125.425781 C 443.738281 123.421875 456.785156 122.632812 466.816406 131.605469 C 476.703125 140.445312 486.890625 148.839844 483.566406 164.359375 C 483.46875 164.804688 484.40625 165.46875 484.839844 166.015625 C 497.511719 165.203125 500.679688 166.914062 501.03125 174.347656 C 497.402344 173.511719 493.652344 172.652344 489.710938 171.746094 C 488.078125 177.460938 483.367188 182.316406 489.789062 186.472656 C 496.160156 190.601562 498.253906 184.074219 501.324219 179.972656 C 507.011719 185.171875 505.582031 189.609375 501.628906 193.582031 C 493.613281 201.628906 493.09375 206.535156 498.847656 216.089844 C 501.414062 220.335938 503.726562 224.832031 505.769531 229.425781 C 509.144531 237.023438 515.925781 243.785156 522.75 248.945312 C 527.476562 252.523438 534.695312 252.800781 540.359375 254.421875 C 543.375 244.464844 547.210938 234.226562 549.402344 223.648438 C 550.640625 217.648438 553.40625 215.0625 558.761719 214.996094 C 563.167969 214.9375 565.785156 213.617188 568.777344 209.980469 C 574.722656 202.765625 581.644531 197.042969 592.019531 195.320312 C 598.769531 194.195312 605.101562 188.9375 610.917969 184.59375 C 613.585938 182.601562 616.238281 178.179688 615.957031 175.140625 C 615.3125 168.257812 612.839844 161.554688 611.480469 156.238281 C 614.265625 151.523438 616.800781 147.46875 618.90625 143.210938 C 619.109375 142.808594 616.601562 141.0625 614.75 139.398438 C 617.644531 138.679688 619.941406 138.109375 622.136719 137.5625 C 618.984375 133.863281 616.058594 130.441406 612.664062 126.464844 C 615.851562 125.445312 618.105469 124.734375 621.464844 123.660156 C 613.335938 116.246094 612.777344 109.046875 619.84375 101.316406 C 620.597656 100.492188 618.277344 96.863281 617.5625 95.011719 C 626.914062 96.203125 629.265625 85.992188 635.699219 81.09375 C 622.28125 77.089844 611.132812 83.511719 598.824219 88.667969 C 601.710938 83.285156 604.296875 78.476562 606.984375 73.460938 C 598.253906 70.433594 590.511719 66.773438 582.355469 65.183594 C 573.792969 63.511719 564.84375 63.699219 556.050781 63.304688 C 547.496094 62.921875 538.941406 62.902344 532.1875 69.546875 C 522.964844 65.429688 516.730469 72.96875 508.375 75.558594 C 510.621094 78.628906 512.644531 81.394531 514.660156 84.148438 C 514.160156 84.746094 513.667969 85.347656 513.167969 85.945312 C 508.085938 81.765625 503 77.582031 496.785156 72.476562 C 496.085938 77.015625 495.710938 79.4375 494.859375 84.996094 C 491.292969 74.734375 483.128906 80.25 477.707031 75.246094 C 477.152344 74.734375 476.097656 74.582031 474.714844 74.699219 C 463.15625 80.90625 451.867188 87.53125 440.859375 94.578125 C 439.726562 100.492188 436.992188 101.207031 431.519531 100.742188 C 431.503906 100.742188 431.492188 100.742188 431.46875 100.742188 C 426.328125 104.191406 421.265625 107.738281 416.257812 111.363281 C 417.851562 112.097656 419.609375 112.898438 422.242188 114.113281 C 418.496094 115.394531 415.785156 116.324219 412.039062 117.605469 C 419.160156 122.625 423.121094 127.335938 433.210938 125.425781 Z M 433.210938 125.425781 " fill-opacity="1" fill-rule="nonzero"/><path fill="#ffffff" d="M 1190.488281 713.519531 C 1186.371094 720.308594 1182.609375 725.304688 1175.121094 727.6875 C 1171.324219 728.902344 1167.617188 730.675781 1164.203125 732.730469 C 1157.136719 736.984375 1148.84375 740.261719 1147.992188 750.320312 C 1147.246094 759.148438 1145.816406 767.785156 1147.785156 776.828125 C 1150.417969 788.9375 1153.265625 801.300781 1147.089844 813.542969 C 1146.511719 814.695312 1148.332031 817.070312 1150.085938 819.972656 C 1176.117188 781.226562 1197.039062 738.757812 1211.929688 693.546875 C 1211.816406 693.445312 1211.714844 693.339844 1211.601562 693.242188 C 1204.382812 699.886719 1195.378906 705.457031 1190.488281 713.519531 Z M 1190.488281 713.519531 " fill-opacity="1" fill-rule="nonzero"/><path fill="#ffffff" d="M 1176.070312 575.820312 C 1173.367188 579.78125 1172.066406 582.566406 1170 584.554688 C 1163.089844 591.210938 1156.285156 598.117188 1148.5625 603.710938 C 1146.574219 605.152344 1141.792969 603.882812 1141.222656 608.019531 C 1140.738281 611.566406 1141.195312 615.347656 1141.847656 618.914062 C 1142.230469 620.988281 1143.871094 622.808594 1144.847656 624.789062 C 1148.253906 631.703125 1165.25 636.796875 1169.273438 630.96875 C 1174.171875 623.882812 1179.027344 614.664062 1178.648438 606.613281 C 1178.261719 598.464844 1178.023438 591.835938 1184.148438 585.71875 C 1181.5 582.476562 1179.257812 579.726562 1176.070312 575.820312 Z M 1176.070312 575.820312 " fill-opacity="1" fill-rule="nonzero"/><path fill="#ffffff" d="M 864.148438 751.414062 C 867.164062 750.648438 870.910156 747.945312 871.964844 745.140625 C 878.148438 728.671875 883.957031 712.050781 889.191406 695.257812 C 890.792969 690.121094 892.09375 683.910156 885.964844 678.613281 C 880.429688 687.5625 874.84375 695.378906 865.042969 699.328125 C 862.796875 700.226562 862.304688 706.058594 861.476562 709.730469 C 860.644531 713.417969 861.542969 717.996094 859.660156 720.851562 C 854.351562 728.894531 854.644531 736.859375 858.238281 744.992188 C 859.425781 747.652344 862.769531 751.769531 864.148438 751.414062 Z M 864.148438 751.414062 " fill-opacity="1" fill-rule="nonzero"/><path fill="#ffffff" d="M 880.734375 154.910156 C 883.664062 156.753906 887.78125 157.867188 889.054688 160.410156 C 893.066406 168.433594 897.96875 165.820312 902.8125 163.554688 C 900.90625 158.007812 897.769531 153.03125 897.789062 148.078125 C 897.839844 135.769531 907.765625 124.503906 919.652344 120.914062 C 925.648438 119.105469 931.582031 116.988281 937.304688 114.472656 C 938.648438 113.882812 939.03125 111.113281 939.855469 109.347656 C 937.984375 109.089844 935.941406 108.230469 934.273438 108.703125 C 929.714844 109.976562 925.363281 113.019531 920.839844 113.203125 C 907.398438 113.78125 897.417969 120.332031 888.578125 129.539062 C 887.558594 130.601562 885.554688 132.054688 885.777344 132.75 C 888.535156 141.28125 880.125 147.191406 880.734375 154.910156 Z M 880.734375 154.910156 " fill-opacity="1" fill-rule="nonzero"/><path fill="#ffffff" d="M 1123.191406 625.253906 C 1122.59375 625.1875 1122.160156 623.566406 1121.675781 622.644531 C 1117.792969 615.339844 1113.914062 608.039062 1110.042969 600.746094 C 1110.042969 600.746094 1110.125 600.820312 1110.203125 600.902344 L 1110.359375 601.0625 C 1110.347656 601 1110.339844 600.9375 1110.328125 600.875 C 1110.242188 600.839844 1110.160156 600.808594 1110.078125 600.765625 C 1105.519531 595.902344 1100.605469 591.308594 1096.566406 586.042969 C 1093.132812 581.5625 1089.183594 580.855469 1083.445312 581.375 C 1084.050781 583.777344 1083.953125 585.890625 1084.957031 587 C 1095.6875 598.832031 1101.910156 613.117188 1107.632812 627.714844 C 1108.976562 631.136719 1110.328125 634.601562 1112.105469 637.800781 C 1114.886719 642.796875 1121.792969 645.835938 1123.757812 642.816406 C 1126.628906 638.398438 1128.761719 633.027344 1129.472656 627.824219 C 1130.089844 623.238281 1125.664062 625.539062 1123.191406 625.253906 Z M 1123.191406 625.253906 " fill-opacity="1" fill-rule="nonzero"/><path fill="#ffffff" d="M 616.90625 211.199219 C 616.386719 210.957031 613.304688 214.34375 613.523438 214.6875 C 616.191406 218.875 616.148438 224.851562 621.851562 227.078125 C 632.402344 231.183594 640.433594 227.1875 645.71875 214.199219 C 643.625 212.230469 641.242188 209.984375 639.308594 208.164062 C 631.140625 207.65625 624.871094 214.902344 616.90625 211.199219 Z M 616.90625 211.199219 " fill-opacity="1" fill-rule="nonzero"/><path fill="#ffffff" d="M 1207.910156 609.320312 C 1202.300781 609.320312 1197.871094 608.792969 1193.652344 609.507812 C 1190.8125 609.984375 1186.636719 611.636719 1185.875 613.769531 C 1182.375 623.585938 1180.207031 633.777344 1183.414062 644.148438 C 1184.222656 644.339844 1185.042969 644.527344 1185.851562 644.722656 C 1187.050781 641.640625 1188.25 638.554688 1189.484375 635.382812 C 1192.503906 638.703125 1195.378906 641.859375 1198.253906 645.019531 C 1199.058594 644.515625 1199.867188 644.007812 1200.671875 643.503906 C 1198.453125 637.90625 1196.238281 632.300781 1194.152344 627.050781 C 1196.070312 624.976562 1197.699219 623.21875 1199.9375 620.792969 C 1196.160156 619.179688 1193.3125 617.960938 1190.007812 616.539062 C 1195.386719 611.640625 1203.871094 617.835938 1207.910156 609.320312 Z M 1207.910156 609.320312 " fill-opacity="1" fill-rule="nonzero"/><path fill="#ffffff" d="M 498.863281 324.140625 C 495.664062 321.640625 490.804688 320.890625 488.320312 317.976562 C 486.289062 315.59375 486.53125 311.277344 485.851562 307.75 C 481.53125 314.941406 477.214844 322.132812 472.855469 329.386719 C 484.335938 330.976562 494.875 332.445312 507.746094 334.242188 C 503.960938 329.828125 501.828125 326.453125 498.863281 324.140625 Z M 498.863281 324.140625 " fill-opacity="1" fill-rule="nonzero"/><path fill="#ffffff" d="M 1159.632812 654.59375 C 1153.492188 645.25 1142.089844 650.230469 1134.03125 645.492188 C 1132.085938 644.347656 1125.636719 646.503906 1124.917969 648.46875 C 1123.128906 653.367188 1128.316406 653.984375 1131.65625 654.71875 C 1141.132812 656.816406 1150.695312 658.554688 1162.597656 660.90625 C 1161.066406 657.601562 1160.539062 655.972656 1159.632812 654.59375 Z M 1159.632812 654.59375 " fill-opacity="1" fill-rule="nonzero"/><path fill="#ffffff" d="M 635.214844 287.105469 C 627.359375 292.15625 629.8125 299.597656 628.621094 307.320312 C 631.085938 307.480469 632.570312 307.914062 633.886719 307.609375 C 641.5 305.832031 644.226562 300.460938 644.277344 293.132812 C 644.296875 290.617188 645.84375 286.765625 644.746094 285.851562 C 641.742188 283.335938 638.824219 284.785156 635.214844 287.105469 Z M 635.214844 287.105469 " fill-opacity="1" fill-rule="nonzero"/><path fill="#ffffff" d="M 329.238281 465.355469 C 329.230469 466.136719 329.21875 466.921875 329.210938 467.703125 C 332.992188 467.085938 337.238281 465.078125 340.460938 466.144531 C 347.679688 468.535156 355.402344 471.265625 361.042969 476.058594 C 367.527344 481.574219 373.042969 481.054688 381.5 477.929688 C 363.515625 470.667969 348.753906 457.1875 329.238281 465.355469 Z M 329.238281 465.355469 " fill-opacity="1" fill-rule="nonzero"/><path fill="#ffffff" d="M 1205.367188 539.03125 C 1196.335938 535.878906 1194.644531 530.925781 1199.792969 522.539062 C 1202.222656 518.582031 1199.015625 515.242188 1193.121094 514.105469 C 1188.839844 536.988281 1188.839844 536.988281 1207.015625 543.367188 C 1206.136719 540.953125 1206.011719 539.253906 1205.367188 539.03125 Z M 1205.367188 539.03125 " fill-opacity="1" fill-rule="nonzero"/><path fill="#ffffff" d="M 391.960938 482.570312 C 392.113281 489.804688 386.210938 486.84375 382.449219 487.414062 C 382.664062 488.238281 382.878906 489.0625 383.09375 489.886719 C 393.601562 489.167969 404.121094 488.445312 414.628906 487.726562 C 414.738281 486.652344 414.851562 485.570312 414.96875 484.496094 C 409.140625 483.179688 403.359375 481.613281 397.46875 480.695312 C 395.6875 480.410156 391.949219 481.933594 391.960938 482.570312 Z M 391.960938 482.570312 " fill-opacity="1" fill-rule="nonzero"/><path fill="#ffffff" d="M 1196.632812 571.9375 C 1202.078125 576.476562 1206.246094 579.953125 1210.425781 583.425781 C 1211.285156 576.648438 1220.960938 571.964844 1213.867188 565.648438 C 1207.945312 567.808594 1202.574219 569.769531 1196.632812 571.9375 Z M 1196.632812 571.9375 " fill-opacity="1" fill-rule="nonzero"/><path fill="#ffffff" d="M 341.761719 222.34375 C 343.695312 223.792969 345.644531 225.253906 348.046875 227.0625 C 350.25 223.972656 352.003906 221.511719 353.753906 219.0625 C 357.246094 221.734375 359.59375 226.945312 364.851562 221.546875 C 359.132812 217.210938 353.476562 212.921875 347.019531 208.019531 C 344.777344 214.136719 343.320312 218.105469 341.761719 222.34375 Z M 341.761719 222.34375 " fill-opacity="1" fill-rule="nonzero"/><path fill="#ffffff" d="M 1121.523438 603.34375 C 1117.613281 594.988281 1121.847656 584.789062 1113.113281 577.320312 C 1101.25 567.179688 1102.324219 554.730469 1109.042969 539.484375 C 1115.742188 548.503906 1121.515625 556.273438 1127.148438 563.859375 C 1131 561.054688 1135.316406 557.773438 1139.769531 554.703125 C 1145.011719 551.09375 1147.160156 545.792969 1145.351562 540.1875 C 1143.011719 532.9375 1140.082031 525.558594 1135.835938 519.300781 C 1127.660156 507.277344 1130.148438 499.292969 1144.410156 495.574219 C 1147.945312 499.757812 1149.296875 503.609375 1143.730469 507.546875 C 1142.96875 508.085938 1144.390625 511.714844 1144.800781 513.914062 C 1146.945312 513.085938 1149.710938 512.8125 1151.039062 511.28125 C 1152.210938 509.9375 1152.667969 506.757812 1151.886719 505.136719 C 1148.476562 498.054688 1152.691406 496.21875 1158.136719 494.105469 C 1164.058594 491.804688 1169.835938 488.957031 1175.316406 485.730469 C 1187.675781 478.464844 1190.042969 464.746094 1195.289062 453.058594 C 1198.246094 446.472656 1195.695312 439.648438 1192.765625 433.363281 C 1191.679688 431.035156 1190.066406 428.957031 1188.875 426.671875 C 1184.53125 418.351562 1185.796875 413.320312 1193.527344 407.9375 C 1195.074219 406.863281 1196.671875 405.875 1198.253906 404.847656 C 1198.078125 404.121094 1197.898438 403.402344 1197.726562 402.671875 C 1192.664062 402.671875 1187.605469 402.671875 1181.398438 402.671875 C 1180.503906 401.09375 1178.953125 398.363281 1177.644531 396.066406 C 1183.117188 391.277344 1187.917969 387.066406 1193.855469 381.871094 C 1193.855469 386.734375 1193.855469 389.96875 1193.855469 393.132812 C 1195.09375 393.132812 1195.539062 393.273438 1195.785156 393.113281 C 1204.695312 387.320312 1204.648438 387.335938 1207.800781 397.199219 C 1208.214844 398.503906 1209.128906 400.285156 1210.21875 400.644531 C 1218.261719 403.285156 1215.953125 409.707031 1215.878906 415.335938 C 1215.851562 417.601562 1215.871094 419.867188 1215.871094 423.410156 C 1219.5625 421.269531 1222.453125 419.589844 1225.367188 417.902344 C 1198.148438 296.082031 1128.0625 190.464844 1031.738281 117.699219 C 1030.277344 117.875 1028.835938 118.546875 1027.4375 119.933594 C 1024.359375 122.964844 1023.292969 128.03125 1020.515625 133.90625 C 1018.519531 133.90625 1013.949219 133.175781 1009.757812 134.125 C 1006.214844 134.921875 1001.378906 136.933594 1000.203125 139.710938 C 998.285156 144.234375 1000.1875 149.160156 1005.648438 151.425781 C 1006.992188 151.980469 1008.417969 152.570312 1009.5 153.503906 C 1013.523438 156.972656 1013.269531 163.242188 1008.316406 168.613281 C 1008.316406 163.671875 1008.316406 159.515625 1008.316406 155.90625 C 1000.777344 152.359375 994.042969 149.203125 985.65625 145.257812 C 989.410156 151.542969 986.929688 154.335938 981.054688 155.296875 C 983.335938 158.0625 984.832031 159.871094 986.402344 161.78125 C 979.175781 165.238281 977.515625 158.511719 973.863281 155.015625 C 966.511719 162.433594 974.371094 169.195312 973.945312 175.902344 C 973.914062 176.449219 979.847656 177.371094 981.082031 177.660156 C 979.664062 181.332031 978.089844 185.296875 976.605469 189.300781 C 975.546875 192.160156 974.605469 195.0625 973.613281 197.953125 C 971.890625 192.574219 971.957031 187.960938 971.328125 183.453125 C 970.738281 179.269531 970.019531 174.898438 968.257812 171.128906 C 964.824219 163.785156 966.269531 156.28125 966.007812 148.757812 C 965.925781 146.492188 963.445312 143.007812 961.40625 142.441406 C 958.671875 141.679688 954.230469 142.128906 952.375 143.941406 C 944.164062 151.988281 943.105469 165.265625 948.578125 175.726562 C 949.75 177.964844 949.527344 180.929688 950.191406 185.136719 C 940 178.171875 932.125 169.570312 919.988281 174.980469 C 919.066406 178.597656 922.773438 186.5 913.289062 182.023438 C 911.910156 181.375 909.78125 182.289062 908.007812 182.523438 C 903.410156 183.140625 896.953125 185.988281 894.582031 183.984375 C 888.402344 178.769531 883.976562 182.691406 879.738281 185.148438 C 875.21875 187.769531 871.554688 191.960938 867.808594 195.75 C 866.332031 197.238281 865.644531 199.519531 864.605469 201.429688 C 863.421875 200.882812 862.230469 200.335938 861.046875 199.789062 C 860.90625 197.390625 860.027344 194.730469 860.761719 192.636719 C 863.429688 184.957031 862.886719 183.957031 853.375 182.621094 C 852.917969 188.386719 852.46875 194.140625 852.046875 199.449219 C 847.863281 200.695312 843.378906 200.855469 840.804688 203.15625 C 838.566406 205.148438 838.476562 209.5625 837.457031 212.859375 C 834.671875 211.785156 831.546875 210.582031 826.691406 208.703125 C 828.5625 213.699219 829.636719 216.558594 830.710938 219.421875 C 826.871094 219.644531 822.9375 218.761719 822.078125 216.636719 C 819.175781 209.472656 816.3125 202.488281 809.578125 197.597656 C 816.125 198.9375 821.898438 201.140625 827.820312 202.78125 C 833.738281 204.414062 838.085938 201.644531 840.394531 196.324219 C 842.5 191.460938 838.988281 188.75 835.308594 186.640625 C 828.617188 182.792969 822.222656 177.652344 814.988281 175.707031 C 803.78125 172.6875 796.949219 163.4375 787.730469 158.511719 C 785.5 159.753906 783.765625 161.589844 782.324219 161.386719 C 770.707031 159.773438 761.875 168.523438 750.9375 169.660156 C 748.304688 169.9375 744.339844 173.933594 743.972656 176.628906 C 741.949219 191.363281 732.917969 202.546875 724.304688 211.050781 C 715.417969 219.835938 705.84375 227.949219 696.3125 236.046875 C 693.269531 238.632812 692.707031 240.960938 693.753906 244.6875 C 694.910156 248.816406 695.070312 253.214844 695.742188 257.480469 C 697.171875 266.613281 702.441406 269.101562 710.589844 264.605469 C 713.582031 262.953125 716.679688 261.507812 719.46875 260.09375 C 722.144531 266.390625 724.25 271.335938 726.503906 276.636719 C 723.746094 278.363281 721.042969 280.046875 718.085938 281.886719 C 717.628906 276.824219 717.21875 272.371094 716.769531 267.375 C 706.371094 275.042969 706.371094 275.042969 709.105469 285.878906 C 711.371094 294.851562 710.519531 295.929688 701.75 298.09375 C 698.4375 298.910156 693.492188 300.363281 692.667969 302.714844 C 689.867188 310.695312 684.195312 309.308594 677.355469 309.382812 C 678.804688 306.011719 679.859375 303.558594 680.667969 301.6875 C 675.769531 296.332031 671.191406 291.726562 667.105469 286.722656 C 662.890625 281.570312 659.566406 275.917969 663.605469 268.644531 C 660.625 267.894531 658.570312 267.382812 656.511719 266.855469 C 656.683594 264.878906 656.859375 262.914062 657.03125 260.980469 C 649.886719 259.59375 649.167969 264.914062 647.777344 268.808594 C 643.875 279.734375 651.050781 285.984375 659.574219 291.980469 C 648.972656 297.207031 650.761719 305.554688 651.28125 314.09375 C 660.238281 313.382812 668.683594 312.710938 677.136719 312.039062 C 677.390625 313.230469 677.648438 314.421875 677.910156 315.613281 C 673.464844 317.414062 665.890625 318.398438 665.171875 321.175781 C 663.09375 329.136719 653.457031 321.113281 652.429688 328.753906 C 659.128906 336.429688 672.742188 340.941406 666.273438 355.496094 C 654.335938 358.71875 641.941406 350.949219 631.371094 357.339844 C 631.667969 363.558594 633.277344 368.796875 631.800781 372.917969 C 629.410156 379.578125 630.65625 385.070312 633.171875 390.757812 C 636.585938 391.671875 639.96875 392.046875 642.84375 393.445312 C 656.753906 400.199219 669.695312 391.324219 673.609375 380.84375 C 674.84375 377.539062 676.566406 373.929688 679.152344 371.742188 C 683.238281 368.277344 688.925781 366.546875 688.863281 359.636719 C 688.855469 358.964844 692.402344 357.226562 693.320312 357.742188 C 701.632812 362.402344 706.925781 355.300781 713.832031 352.378906 C 715.75 354.808594 717.441406 357.171875 719.359375 359.332031 C 722.988281 363.429688 726.105469 368.484375 730.601562 371.1875 C 738.300781 375.808594 744.703125 380.679688 744.367188 391.230469 C 745.101562 391.035156 745.835938 390.847656 746.570312 390.652344 C 748.074219 385.789062 749.578125 380.921875 751.476562 374.78125 C 750.4375 373.949219 747.832031 372.019531 745.386719 369.898438 C 739.699219 364.957031 733.832031 360.179688 728.613281 354.769531 C 727.222656 353.328125 727.929688 349.863281 727.667969 347.320312 C 733.628906 350.078125 737.027344 354.449219 741.4375 357.136719 C 750.515625 362.660156 759.269531 367.265625 761.578125 379.617188 C 762.714844 385.695312 768.894531 390.828125 773.515625 397.421875 C 776.359375 395.476562 779.445312 393.371094 782.507812 391.277344 C 779.742188 386.953125 777.636719 383.65625 775.515625 380.351562 C 788.136719 372.359375 788.097656 372.371094 791.375 385.464844 C 792.082031 388.277344 792.539062 391.628906 794.359375 393.570312 C 797.769531 397.199219 801.714844 401.835938 806.101562 402.703125 C 813.667969 404.191406 821.738281 403.117188 830.160156 403.117188 C 830.417969 403.773438 831.511719 405.1875 831.382812 406.476562 C 830.757812 412.59375 831.0625 419.328125 828.410156 424.488281 C 827.121094 426.996094 820.074219 426.558594 815.632812 427.441406 C 814.195312 427.722656 812.738281 427.960938 811.296875 428.242188 C 799.777344 430.507812 788.769531 429.25 778.417969 423.476562 C 776.8125 422.582031 775.316406 421.390625 773.605469 420.789062 C 767.671875 418.683594 765.046875 420.242188 763.273438 426.644531 C 762.824219 428.273438 762.367188 429.894531 761.472656 433.121094 C 755.148438 430.335938 749.558594 427.980469 744.0625 425.410156 C 740.539062 423.761719 737.335938 421.210938 733.671875 420.082031 C 724.695312 417.324219 723.476562 415.941406 723.433594 405.742188 C 723.425781 403.582031 723.597656 401.203125 722.78125 399.320312 C 721.910156 397.3125 719.898438 394.207031 718.488281 394.257812 C 702.394531 394.84375 685.835938 391.832031 670.5 399.113281 C 662.503906 402.910156 654.683594 404.011719 647.285156 399.617188 C 643.882812 403.859375 641.671875 409.289062 637.917969 410.738281 C 629.695312 413.917969 627.503906 419.507812 628.09375 427.109375 C 628.496094 432.25 626.515625 436.121094 622.175781 438.039062 C 608.980469 443.886719 603.542969 456.203125 596.511719 467.34375 C 594.371094 470.730469 594.023438 473.148438 594.9375 477.300781 C 596.386719 483.902344 597.347656 491.765625 595.0625 497.769531 C 590.691406 509.25 592.878906 517.605469 601.921875 525.085938 C 603.578125 526.457031 605.011719 528.410156 605.847656 530.386719 C 610.753906 541.949219 619.28125 550.136719 629.117188 557.605469 C 634.738281 561.871094 639.210938 566.488281 646.589844 561.367188 C 647.867188 560.480469 650.375 560.496094 651.953125 561.078125 C 663.597656 565.335938 674.378906 560.875 685.242188 557.910156 C 692.832031 555.832031 697.460938 557.105469 700.445312 564.304688 C 701.964844 567.960938 703.523438 569.492188 707.429688 569.839844 C 720.292969 570.976562 721.457031 572.769531 719.089844 585.828125 C 718.632812 588.363281 718.652344 591.058594 717.78125 593.4375 C 715.695312 599.109375 717.664062 603.4375 721.5 607.457031 C 729.738281 616.089844 733.546875 627.207031 735.128906 638.3125 C 736.492188 647.914062 738.722656 657.972656 732.066406 667.976562 C 727.480469 674.863281 724.113281 684.5 728.851562 693.277344 C 736.402344 707.265625 739.25 722.070312 739.242188 737.769531 C 739.242188 742.027344 740.085938 746.734375 742.035156 750.453125 C 747.050781 760.046875 751.339844 769.332031 748.484375 780.753906 C 747 786.683594 751.171875 791.820312 756.347656 791.964844 C 763.542969 792.15625 770.832031 792.511719 777.917969 791.554688 C 782.410156 790.953125 787.644531 789.144531 790.714844 786.054688 C 799.9375 776.75 810.292969 767.703125 812.386719 753.800781 C 813.152344 748.714844 814.414062 745.304688 819.457031 744.136719 C 824.445312 742.972656 825.726562 739.578125 825.574219 735.03125 C 825.445312 731.332031 825.679688 727.605469 825.355469 723.925781 C 824.300781 712.144531 827.695312 707.066406 838.082031 701.5625 C 842.597656 699.167969 848.429688 694.824219 849.164062 690.582031 C 851.054688 679.699219 853.417969 668.636719 848.949219 657.15625 C 846.332031 650.429688 845.777344 641.839844 847.351562 634.773438 C 850.34375 621.347656 860.679688 611.613281 868.25 600.53125 C 868.847656 599.65625 870.085938 599.25 870.820312 598.4375 C 876.433594 592.210938 883.3125 586.660156 887.253906 579.496094 C 892.707031 569.589844 896.074219 558.507812 900.007812 547.808594 C 900.894531 545.398438 900.472656 542.503906 900.6875 539.316406 C 896.785156 540.042969 894.242188 540.433594 891.734375 541 C 888.867188 541.644531 886.054688 542.515625 883.1875 543.160156 C 872.621094 545.550781 869.386719 543.320312 867.910156 532.617188 C 868.667969 532.429688 857.957031 521.402344 853.375 515.933594 C 852.03125 514.328125 851.296875 512.144531 850.523438 510.136719 C 850.140625 509.144531 850.757812 507.519531 850.167969 506.910156 C 841.785156 498.191406 842.402344 485.667969 836.785156 475.65625 C 832.054688 467.21875 829.488281 457.570312 827.191406 446.59375 C 829.332031 447.601562 832.460938 448.023438 833.445312 449.707031 C 839.4375 459.902344 847.871094 469.105469 848.265625 481.835938 C 848.480469 488.875 853.980469 492.527344 857.546875 497.453125 C 864.140625 506.554688 867.75 528.03125 868.152344 528.773438 C 869.414062 529.742188 870.777344 530.683594 871.632812 531.75 C 878.371094 530.261719 885.222656 529.042969 891.480469 526.410156 C 897.949219 523.695312 903.019531 517.703125 909.457031 514.832031 C 920.5625 509.894531 927.449219 502.140625 932.105469 490.96875 C 934.949219 484.144531 933.738281 479.925781 928.867188 475.503906 C 925.453125 472.402344 922.210938 469.117188 918.84375 465.863281 C 907.328125 473.578125 906.449219 474.3125 897.769531 463.769531 C 892.394531 457.242188 885.804688 450.011719 886.3125 440.015625 C 894.042969 436.640625 895.53125 442.308594 898.027344 446.734375 C 905.890625 460.6875 907.765625 461.582031 922.890625 458.953125 C 924.601562 465.320312 928.980469 468.132812 935.804688 467.851562 C 941.234375 467.621094 946.753906 468.8125 952.132812 468.292969 C 957.007812 467.820312 960.578125 468.410156 963.742188 472.546875 C 966.832031 476.578125 970.789062 479.953125 974.300781 483.671875 C 974.945312 484.351562 975.914062 485.785156 975.699219 486.054688 C 972.324219 490.335938 975.199219 493.726562 978.285156 495.074219 C 980.839844 496.199219 984.582031 494.625 987.59375 494.273438 C 989.429688 519.773438 996.835938 543.625 1007.824219 567.269531 C 1018.597656 559.941406 1020.417969 550.351562 1020.050781 539.738281 C 1019.824219 533.082031 1020.605469 527.519531 1026.847656 522.488281 C 1036.066406 515.0625 1043.695312 505.660156 1052.125 497.230469 C 1053.296875 496.058594 1055.132812 495.5 1056.726562 494.820312 C 1060.835938 493.066406 1064.992188 491.410156 1069.652344 489.5 C 1071.890625 501.476562 1086.289062 509.3125 1080.847656 525.785156 C 1086.378906 524.144531 1089.648438 523.167969 1094.066406 521.851562 C 1096.367188 531.542969 1099.796875 541.007812 1100.578125 550.691406 C 1101.347656 560.230469 1099.859375 569.425781 1105.324219 578.664062 C 1109.003906 584.886719 1108.859375 593.367188 1110.375 600.863281 C 1113.449219 602.191406 1116.527344 603.523438 1119.601562 604.851562 C 1120.207031 604.355469 1120.863281 603.847656 1121.523438 603.34375 Z M 772.972656 255.582031 C 773.859375 261.140625 774.566406 265.53125 775.5625 271.738281 C 771.164062 270.070312 768.726562 269.140625 766.960938 268.46875 C 763.171875 275.390625 760.898438 283.675781 755.480469 288.191406 C 750.757812 292.128906 742.546875 292.570312 735.765625 293.089844 C 731.199219 293.445312 726.226562 291.519531 725.386719 284.875 C 728.460938 283.308594 731.308594 281.273438 734.484375 280.371094 C 741.894531 278.25 744.105469 273.179688 744.589844 266.101562 C 744.742188 263.933594 747.480469 261.820312 749.273438 259.90625 C 752.59375 256.378906 754.628906 253.207031 750.6875 248.457031 C 742.84375 239 744.644531 228.855469 754.441406 221.125 C 757.296875 218.875 759.941406 215.5 761.085938 212.105469 C 764.050781 203.285156 765.40625 202.300781 778.308594 205.691406 C 774.289062 211.601562 771.40625 216.503906 767.867188 220.882812 C 761.722656 228.488281 764.050781 244.417969 772.722656 248.640625 C 774.574219 249.542969 778.007812 247.894531 780.421875 246.777344 C 787.15625 243.660156 789.191406 244.050781 796.167969 251.433594 C 788.195312 252.859375 780.898438 254.164062 772.972656 255.582031 Z M 846.164062 373.9375 C 841.140625 373.6875 835.730469 373.132812 831.289062 371.015625 C 825.078125 368.046875 819.722656 366.980469 813.5625 370.875 C 811.289062 372.308594 807.964844 372.664062 805.152344 372.550781 C 796.777344 372.21875 794.796875 368.929688 798.136719 361.257812 C 801.011719 354.65625 804.128906 348.160156 808.195312 339.328125 C 812.664062 343.546875 815.265625 345.394531 817.082031 347.839844 C 821.871094 354.269531 821.738281 354.367188 830.023438 351.046875 C 828.261719 349.40625 826.519531 347.769531 823.808594 345.234375 C 829.210938 343.027344 833.554688 341.253906 838.855469 339.082031 C 837.652344 343.46875 836.644531 347.132812 835.378906 351.742188 C 840.101562 355.480469 845.203125 359.085938 849.71875 363.308594 C 851.609375 365.078125 852.269531 368.167969 853.480469 370.660156 C 851.042969 371.824219 848.546875 374.054688 846.164062 373.9375 Z M 846.164062 373.9375 " fill-opacity="1" fill-rule="nonzero"/></svg>