<svg width="15" height="26" viewBox="0 0 15 26" fill="none" xmlns="http://www.w3.org/2000/svg">
<path d="M12.1763 2.2876C12.8029 2.9484 13.2643 3.69466 13.5605 4.52637C13.8682 5.34668 14.022 6.24105 14.022 7.20947C14.022 9.31722 13.3498 11.0376 12.0054 12.3706C10.661 13.7036 8.81527 14.5068 6.46826 14.7803V18.5571H4.896V12.0801C5.61377 12.0231 6.32585 11.9092 7.03223 11.7383C7.73861 11.556 8.37093 11.2655 8.9292 10.8667C9.51025 10.4451 9.96029 9.93815 10.2793 9.3457C10.6097 8.74186 10.7749 7.90446 10.7749 6.8335C10.7749 5.12451 10.4103 3.81429 9.68115 2.90283C8.96338 1.99137 7.90951 1.53564 6.51953 1.53564C5.99544 1.53564 5.53402 1.6154 5.13525 1.7749C4.74788 1.92301 4.46305 2.06543 4.28076 2.20215C4.33773 2.47559 4.41178 2.86865 4.50293 3.38135C4.60547 3.89404 4.65674 4.28711 4.65674 4.56055C4.65674 4.9821 4.47445 5.36947 4.10986 5.72266C3.74528 6.06445 3.21549 6.23535 2.52051 6.23535C1.90527 6.23535 1.46663 6.02458 1.20459 5.60303C0.942546 5.18148 0.811523 4.69157 0.811523 4.1333C0.811523 3.67757 0.936849 3.23324 1.1875 2.80029C1.43815 2.35596 1.83122 1.92871 2.3667 1.51855C2.82243 1.15397 3.43766 0.840658 4.2124 0.578613C4.99854 0.316569 5.81315 0.185547 6.65625 0.185547C7.86393 0.185547 8.9349 0.379232 9.86914 0.766602C10.8034 1.14258 11.5724 1.64958 12.1763 2.2876ZM8.07471 23.0347C8.07471 23.6727 7.84115 24.2196 7.37402 24.6753C6.91829 25.1196 6.37142 25.3418 5.7334 25.3418C5.09538 25.3418 4.54281 25.1196 4.07568 24.6753C3.61995 24.2196 3.39209 23.6727 3.39209 23.0347C3.39209 22.3966 3.61995 21.8498 4.07568 21.394C4.54281 20.9269 5.09538 20.6934 5.7334 20.6934C6.37142 20.6934 6.91829 20.9269 7.37402 21.394C7.84115 21.8498 8.07471 22.3966 8.07471 23.0347Z" fill="#FFA8A8"/>
</svg>
