<svg width="1512" height="348" viewBox="0 0 1512 348" fill="none" xmlns="http://www.w3.org/2000/svg">
<path d="M455 0L605.612 86.9559V260.868L455 347.824L304.388 260.868V86.9559L455 0Z" fill="white"/>
<path d="M153.912 0L304.524 86.9559V260.868L153.912 347.824L3.29976 260.868V86.9559L153.912 0Z" fill="white"/>
<path d="M755.847 0L906.459 86.9559V260.868L755.847 347.824L605.235 260.868V86.9559L755.847 0Z" fill="white"/>
<path d="M454.759 0L605.372 86.9559V260.868L454.759 347.824L304.147 260.868V86.9559L454.759 0Z" fill="white"/>
<path d="M1056.7 0L1207.31 86.9559V260.868L1056.7 347.824L906.083 260.868V86.9559L1056.7 0Z" fill="white"/>
<path d="M1357.36 0L1507.98 86.9559V260.868L1357.36 347.824L1206.75 260.868V86.9559L1357.36 0Z" fill="white"/>
</svg>
